<svg width="24px" height="17px" viewBox="0 0 24 17" version="1.1" xmlns="http://www.w3.org/2000/svg" xmlns:xlink="http://www.w3.org/1999/xlink">
    <g id="Page-1" stroke="none" stroke-width="1" fill="none" fill-rule="evenodd">
        <g id="Artboard" transform="translate(-1467.000000, -1019.000000)">
            <g id="music-and-multimedia" transform="translate(1466.000000, 1019.000000)">
                <path d="M1.47808839,9.57751462 C1.7369995,9.57751462 1.94683839,9.36767578 1.94683839,9.10876462 L1.94683839,1.81292723 C1.94683839,1.33026122 2.33959961,0.9375 2.82226563,0.9375 L23.1777344,0.9375 C23.6604004,0.9375 24.0531616,1.33026122 24.0531616,1.81292723 L24.0531616,3.2473755 C24.0531616,3.50610352 24.2630005,3.7161255 24.5219116,3.7161255 C24.7808228,3.7161255 24.9906616,3.50610352 24.9906616,3.2473755 L24.9906616,1.81292723 C24.9906616,0.813354469 24.1773071,0 23.1777344,0 L2.82226563,0 C1.82269286,0 1.00933839,0.813354469 1.00933839,1.81292723 L1.00933839,9.10876462 C1.00933839,9.36767578 1.21917723,9.57751462 1.47808839,9.57751462 Z" id="Path" fill="#000000" fill-rule="nonzero"></path>
                <path d="M24.5219116,6.61006652 C24.2630005,6.61006652 24.0531616,6.82008846 24.0531616,7.07881652 L24.0531616,14.374837 C24.0531616,14.857503 23.6604004,15.2502642 23.1777344,15.2502642 L2.82226563,15.2502642 C2.33959961,15.2502642 1.94683839,14.857503 1.94683839,14.374837 L1.94683839,12.9403887 C1.94683839,12.6814776 1.7369995,12.4716387 1.47808839,12.4716387 C1.21917723,12.4716387 1.00933839,12.6814776 1.00933839,12.9403887 L1.00933839,14.374837 C1.00933839,15.3744098 1.82269286,16.1877642 2.82226563,16.1877642 L23.1777344,16.1877642 C24.1773071,16.1877642 24.9906616,15.3744098 24.9906616,14.374837 L24.9906616,7.07881652 C24.9906616,6.82008846 24.7808228,6.61006652 24.5219116,6.61006652 L24.5219116,6.61006652 Z" id="Path" fill="#000000" fill-rule="nonzero"></path>
                <path d="M9.9974365,3.95027405 C9.85241697,3.86659482 9.67370603,3.86659482 9.5286865,3.95027405 C9.38366697,4.03395324 9.2943115,4.18867735 9.2943115,4.35621886 L9.2943115,11.8313165 C9.2943115,11.998858 9.38366697,12.1535821 9.5286865,12.2372613 C9.60119631,12.2791925 9.68212891,12.3000665 9.7630615,12.3000665 C9.84399414,12.3000665 9.92492678,12.2791925 9.9974365,12.2372613 L16.4711304,8.4997125 C16.6161499,8.41603332 16.7055054,8.26130921 16.7055054,8.09376769 C16.7055054,7.92640932 16.6161499,7.77168516 16.4711304,7.68782288 L9.9974365,3.95027405 Z M10.2318115,11.01961 L10.2318115,5.16810854 L15.2994385,8.09376769 L10.2318115,11.01961 Z" id="Shape" fill="#000000" fill-rule="nonzero"></path>
                <path d="M24.52,8.5 L24.52,2.5" id="Line-2" stroke="#000000" stroke-width="0.94" stroke-linecap="square"></path>
                <path d="M1.48,13.5 L1.48,7.5" id="Line-2" stroke="#000000" stroke-width="0.94" stroke-linecap="square"></path>
            </g>
        </g>
    </g>
</svg>
