<svg xmlns="http://www.w3.org/2000/svg" width="18" height="18" viewBox="0 0 18 18">
  <g opacity=".596" transform="translate(-1611 -446)">
    <path d="M1615.42252,451.165554 C1615.3118,451.06213 1615.16033,451 1614.99712,451 C1614.83391,451 1614.68244,451.06213 1614.57172,451.165554 L1611.15632,454.420372 C1610.93487,454.627409 1610.95237,454.958517 1611.18555,455.150021 C1611.41873,455.34664 1611.79742,455.331108 1612.01886,455.12426 L1614.43176,452.831889 L1614.43176,458.482502 C1614.43176,458.767202 1614.69396,459 1615.01461,459 C1615.33505,459 1615.59746,458.767202 1615.59746,458.482502 L1615.59746,452.831889 L1617.99266,455.12426 C1618.10935,455.232798 1618.26083,455.289814 1618.41827,455.289814 C1618.55801,455.289814 1618.69796,455.243216 1618.81445,455.150021 C1619.04763,454.953402 1619.06513,454.627409 1618.84368,454.420372 L1615.42252,451.165554 Z" transform="rotate(90 1615 455)"/>
    <path d="M1625.42252,451.165554 C1625.3118,451.06213 1625.16033,451 1624.99712,451 C1624.83391,451 1624.68244,451.06213 1624.57172,451.165554 L1621.15632,454.420372 C1620.93487,454.627409 1620.95237,454.958517 1621.18555,455.150021 C1621.41873,455.34664 1621.79742,455.331108 1622.01886,455.12426 L1624.43176,452.831889 L1624.43176,458.482502 C1624.43176,458.767202 1624.69396,459 1625.01461,459 C1625.33505,459 1625.59746,458.767202 1625.59746,458.482502 L1625.59746,452.831889 L1627.99266,455.12426 C1628.10935,455.232798 1628.26083,455.289814 1628.41827,455.289814 C1628.55801,455.289814 1628.69796,455.243216 1628.81445,455.150021 C1629.04763,454.953402 1629.06513,454.627409 1628.84368,454.420372 L1625.42252,451.165554 Z" transform="rotate(-90 1625 455)"/>
  </g>
</svg>
