<svg xmlns="http://www.w3.org/2000/svg" width="20" height="20" viewBox="0 0 20 20">
  <g>
    <path d="M17.65625,0 L2.34375,0 C1.05140625,0 0,1.05140625 0,2.34375 L0,17.65625 C0,18.9485938 1.05140625,20 2.34375,20 L17.65625,20 C18.9485938,20 20,18.9485938 20,17.65625 L20,2.34375 C20,1.05140625 18.9485938,0 17.65625,0 Z M18.4375,17.65625 C18.4375,18.0870313 18.0870313,18.4375 17.65625,18.4375 L2.34375,18.4375 C1.91296875,18.4375 1.5625,18.0870313 1.5625,17.65625 L1.5625,2.34375 C1.5625,1.91296875 1.91296875,1.5625 2.34375,1.5625 L17.65625,1.5625 C18.0870313,1.5625 18.4375,1.91296875 18.4375,2.34375 L18.4375,17.65625 Z"/>
    <rect width="13.75" height="1.563" x="3.125" y="3.219"/>
    <rect width="8.906" height="1.563" x="3.125" y="6.344"/>
  </g>
</svg>
