<?xml version="1.0" encoding="iso-8859-1"?>
<!-- Generator: Adobe Illustrator 19.0.0, SVG Export Plug-In . SVG Version: 6.00 Build 0)  -->
<svg xmlns="http://www.w3.org/2000/svg" xmlns:xlink="http://www.w3.org/1999/xlink" version="1.1" id="Layer_1" x="0px" y="0px" viewBox="0 0 512 512" style="enable-background:new 0 0 512 512;" xml:space="preserve" width="512" height="512">
<path d="M315,412V100c0-33.084,26.916-60,60-60h20V0h-20c-32.676,0-61.74,15.755-80,40.066C276.74,15.755,247.676,0,215,0h-20v40h20  c33.084,0,60,26.916,60,60v20.948H60c-33.084,0-60,26.916-60,60v160c0,33.084,26.916,60,60,60h215V412c0,33.084-26.916,60-60,60h-20  v40h20c32.676,0,61.74-15.755,80-40.066C313.26,496.245,342.324,512,375,512h20v-40h-20C341.916,472,315,445.084,315,412z   M60,360.948c-11.028,0-20-8.972-20-20v-160c0-11.028,8.972-20,20-20h215v200H60z M512,180.948v160c0,33.084-26.916,60-60,60h-97  v-40h97c11.028,0,20-8.972,20-20v-160c0-11.028-8.972-20-20-20h-97v-40h97C485.084,120.948,512,147.864,512,180.948z"/>















</svg>
